<mxfile host="app.diagrams.net" modified="2022-04-26T13:47:33.814Z" agent="5.0 (X11; Linux x86_64) AppleWebKit/537.36 (KHTML, like Gecko) Chrome/99.0.4844.51 Safari/537.36" etag="mZb3Fn2BBFm-VjZJNVrH" version="17.4.6" type="github">
  <diagram id="G8zqk6VQ2zBWMdKnbWK5" name="Page-1">
    <mxGraphModel dx="1355" dy="777" grid="1" gridSize="10" guides="1" tooltips="1" connect="1" arrows="1" fold="1" page="1" pageScale="1" pageWidth="827" pageHeight="1169" math="0" shadow="0">
      <root>
        <mxCell id="0" />
        <mxCell id="1" parent="0" />
        <mxCell id="VtFoWukt5FTa5U3CbqhS-1" value="Exposition" style="swimlane;fontStyle=1;align=center;verticalAlign=top;childLayout=stackLayout;horizontal=1;startSize=26;horizontalStack=0;resizeParent=1;resizeParentMax=0;resizeLast=0;collapsible=1;marginBottom=0;" parent="1" vertex="1">
          <mxGeometry x="260" y="440" width="160" height="60" as="geometry">
            <mxRectangle x="600" y="310" width="90" height="26" as="alternateBounds" />
          </mxGeometry>
        </mxCell>
        <mxCell id="VtFoWukt5FTa5U3CbqhS-2" value="+ niveau: real" style="text;strokeColor=none;fillColor=none;align=left;verticalAlign=top;spacingLeft=4;spacingRight=4;overflow=hidden;rotatable=0;points=[[0,0.5],[1,0.5]];portConstraint=eastwest;" parent="VtFoWukt5FTa5U3CbqhS-1" vertex="1">
          <mxGeometry y="26" width="160" height="26" as="geometry" />
        </mxCell>
        <mxCell id="VtFoWukt5FTa5U3CbqhS-3" value="" style="line;strokeWidth=1;fillColor=none;align=left;verticalAlign=middle;spacingTop=-1;spacingLeft=3;spacingRight=3;rotatable=0;labelPosition=right;points=[];portConstraint=eastwest;" parent="VtFoWukt5FTa5U3CbqhS-1" vertex="1">
          <mxGeometry y="52" width="160" height="8" as="geometry" />
        </mxCell>
        <mxCell id="VtFoWukt5FTa5U3CbqhS-7" value="Aléa" style="swimlane;fontStyle=1;align=center;verticalAlign=top;childLayout=stackLayout;horizontal=1;startSize=26;horizontalStack=0;resizeParent=1;resizeParentMax=0;resizeLast=0;collapsible=1;marginBottom=0;" parent="1" vertex="1">
          <mxGeometry x="70" y="270" width="160" height="60" as="geometry" />
        </mxCell>
        <mxCell id="VtFoWukt5FTa5U3CbqhS-8" value="+ intensité: real" style="text;strokeColor=none;fillColor=none;align=left;verticalAlign=top;spacingLeft=4;spacingRight=4;overflow=hidden;rotatable=0;points=[[0,0.5],[1,0.5]];portConstraint=eastwest;" parent="VtFoWukt5FTa5U3CbqhS-7" vertex="1">
          <mxGeometry y="26" width="160" height="26" as="geometry" />
        </mxCell>
        <mxCell id="VtFoWukt5FTa5U3CbqhS-9" value="" style="line;strokeWidth=1;fillColor=none;align=left;verticalAlign=middle;spacingTop=-1;spacingLeft=3;spacingRight=3;rotatable=0;labelPosition=right;points=[];portConstraint=eastwest;" parent="VtFoWukt5FTa5U3CbqhS-7" vertex="1">
          <mxGeometry y="52" width="160" height="8" as="geometry" />
        </mxCell>
        <mxCell id="VtFoWukt5FTa5U3CbqhS-10" value="&lt;p style=&quot;margin: 0px ; margin-top: 4px ; text-align: center&quot;&gt;&lt;b&gt;Risque&lt;/b&gt;&lt;/p&gt;&lt;hr&gt;&lt;p style=&quot;margin: 0px ; text-align: center&quot;&gt;&lt;i&gt;Niveau&lt;/i&gt;&lt;/p&gt;" style="shape=rect;html=1;overflow=fill;whiteSpace=wrap;labelBorderColor=none;" parent="1" vertex="1">
          <mxGeometry x="280" y="170" width="120" height="50" as="geometry" />
        </mxCell>
        <mxCell id="VtFoWukt5FTa5U3CbqhS-11" style="edgeStyle=orthogonalEdgeStyle;rounded=0;orthogonalLoop=1;jettySize=auto;html=1;exitX=0.5;exitY=0;exitDx=0;exitDy=0;endArrow=none;endFill=0;dashed=1;" parent="1" source="VtFoWukt5FTa5U3CbqhS-16" edge="1">
          <mxGeometry relative="1" as="geometry">
            <mxPoint x="300" y="290" as="targetPoint" />
            <mxPoint x="390" y="360" as="sourcePoint" />
          </mxGeometry>
        </mxCell>
        <mxCell id="VtFoWukt5FTa5U3CbqhS-14" value="" style="endArrow=none;html=1;rounded=0;align=center;verticalAlign=bottom;labelBackgroundColor=none;exitX=1;exitY=0.25;exitDx=0;exitDy=0;edgeStyle=elbowEdgeStyle;entryX=0.5;entryY=1;entryDx=0;entryDy=0;elbow=vertical;" parent="1" source="VtFoWukt5FTa5U3CbqhS-7" target="VtFoWukt5FTa5U3CbqhS-10" edge="1">
          <mxGeometry relative="1" as="geometry">
            <mxPoint x="280" y="330" as="sourcePoint" />
            <Array as="points">
              <mxPoint x="320" y="290" />
            </Array>
          </mxGeometry>
        </mxCell>
        <mxCell id="VtFoWukt5FTa5U3CbqhS-16" value="Induit" style="swimlane;fontStyle=1;align=center;verticalAlign=top;childLayout=stackLayout;horizontal=1;startSize=26;horizontalStack=0;resizeParent=1;resizeParentMax=0;resizeLast=0;collapsible=1;marginBottom=0;" parent="1" vertex="1">
          <mxGeometry x="260" y="370" width="160" height="34" as="geometry">
            <mxRectangle x="600" y="310" width="90" height="26" as="alternateBounds" />
          </mxGeometry>
        </mxCell>
        <mxCell id="VtFoWukt5FTa5U3CbqhS-18" value="" style="line;strokeWidth=1;fillColor=none;align=left;verticalAlign=middle;spacingTop=-1;spacingLeft=3;spacingRight=3;rotatable=0;labelPosition=right;points=[];portConstraint=eastwest;" parent="VtFoWukt5FTa5U3CbqhS-16" vertex="1">
          <mxGeometry y="26" width="160" height="8" as="geometry" />
        </mxCell>
        <mxCell id="VtFoWukt5FTa5U3CbqhS-23" value="" style="triangle;aspect=fixed;fillColor=#000000;" parent="1" vertex="1">
          <mxGeometry x="343" y="407" width="6" height="12" as="geometry" />
        </mxCell>
        <mxCell id="VtFoWukt5FTa5U3CbqhS-24" value="" style="endArrow=none;html=1;rounded=0;align=center;verticalAlign=bottom;labelBackgroundColor=none;elbow=vertical;entryX=0.5;entryY=0;entryDx=0;entryDy=0;exitX=0.5;exitY=1;exitDx=0;exitDy=0;" parent="1" source="VtFoWukt5FTa5U3CbqhS-16" target="VtFoWukt5FTa5U3CbqhS-1" edge="1">
          <mxGeometry relative="1" as="geometry">
            <mxPoint x="260" y="412" as="sourcePoint" />
            <mxPoint x="400" y="412" as="targetPoint" />
          </mxGeometry>
        </mxCell>
      </root>
    </mxGraphModel>
  </diagram>
</mxfile>
